<svg xmlns="http://www.w3.org/2000/svg" xmlns:xlink="http://www.w3.org/1999/xlink" width="1280" height="228" viewBox="0 0 1280 228">
  <defs>
    <path id="message_tab-d-a" d="M0 0H1280V180.312H0z"/>
    <path id="message_tab-d-c" d="M2.75163481,4.41290323 L17.8672783,4.41290323 C18.160215,4.41290323 18.398808,4.64824086 18.402832,4.94114998 L18.5462624,15.3814306 C18.5503259,15.6772088 18.3138444,15.9202784 18.0180662,15.9243419 C18.0121189,15.9244236 18.0061706,15.9244062 18.0002238,15.9242898 L3.43853625,15.6391793 C2.86165667,15.6278843 2.39700966,15.1623762 2.38678285,14.5854767 L2.21611467,4.95800078 C2.21087168,4.66224117 2.44638193,4.41823035 2.74214154,4.41298736 C2.74530566,4.41293127 2.7484702,4.41290323 2.75163481,4.41290323 Z"/>
  </defs>
  <g fill="none" fill-rule="evenodd">
    <g transform="translate(0 47.688)">
      <mask id="message_tab-d-b" fill="#fff">
        <use xlink:href="#message_tab-d-a"/>
      </mask>
      <use fill="#282A32" xlink:href="#message_tab-d-a"/>
      <path fill="#44464E" d="M990.332098,99.7954244 L1042.76597,99.7954244 C1052.47692,99.7954244 1060.34919,107.667698 1060.34919,117.37864 L1060.34919,117.37864 L1060.34919,117.37864 L1102.84823,117.37864 L1102.84823,170.236373 L990.332098,170.236373 L990.332098,99.7954244 Z" mask="url(#message_tab-d-b)"/>
      <g mask="url(#message_tab-d-b)">
        <g transform="translate(631.14 85.12)">
          <path stroke="#44464E" stroke-width="1.3" d="M85.82 4.358L0 64.476 178.191 63.289 91.775 4.358z"/>
          <path fill="#383A43" d="M78.591 0H100.591V107.608H78.591z"/>
          <path stroke="#44464E" stroke-linecap="square" stroke-width="1.3" d="M.5 23.499L.5 44.619M16.5 11.832L16.5 44.945M32.5.54L32.5 44.945" transform="translate(34.191 17.452)"/>
          <g stroke-linecap="square" transform="matrix(-1 0 0 1 144.191 18.428)">
            <path stroke="#FFF" stroke-width="1.2" d="M0.5 22.503L0.5 42.662"/>
            <path stroke="#44464E" stroke-width="1.3" d="M16.5 11.232L16.5 42.68M32.5.529L32.5 43.979"/>
          </g>
        </g>
      </g>
      <g mask="url(#message_tab-d-b)">
        <g transform="translate(-184 40.046)">
          <path fill="#383A43" d="M497.574686,50.5797186 L497.574686,72.4354594 L569.971903,72.4354594 C574.915914,61.152992 582.225399,53.8677451 591.90036,50.5797186 C601.229306,53.8677451 608.565979,61.152992 613.91038,72.4354594 L640.775555,72.4354594 L640.775555,85.6143201 L699.488208,85.6143201 L696.340887,85.6356054 L712.015691,140.326005 L586.222141,140.959467 L569.971903,141.041298 L207.332098,142.867454 L207.332098,90.4312018 L286.64878,91.230063 L286.64878,104.179222 L331.831605,104.179222 L331.831605,68.0298461 L353.390311,77.4586494 L353.390311,104.179222 L369.875936,104.179222 L369.875936,77.2359055 L398.832098,77.3297165 L398.832098,125.321723 L466.200418,125.321723 L466.200418,50.5797186 L497.574686,50.5797186 Z M1185.51327,0 L1185.51327,46.0142755 L1236.99041,46.0142755 L1236.3321,97.3208781 L1384.03975,97.156693 L1384.03975,70.1460671 L1410.66939,97.156693 L1446.3321,97.3208781 L1446.3321,140.661118 L861.332098,140.661118 L861.332098,104.179222 L882.91219,104.179222 L882.91219,29.4688152 L900.332098,29.4688152 L900.332098,104.179222 L937.961451,104.179222 L937.961451,104.179222 L937.961451,29.4688152 L937.961451,29.4688152 L1123.12709,29.4688152 L1123.12709,0 L1185.51327,0 Z" transform="matrix(-1 0 0 1 1653.664 0)"/>
          <path fill="#30323A" d="M412.134 35.997L468.134 35.997 468.134 127.155 412.134 127.155z"/>
          <path fill="#383A43" d="M5.282 143.362L5.282 97.305 88.274 97.305 88.274 120.737 135.141 120.737 210.911 143.65z" transform="matrix(-1 0 0 1 216.193 0)"/>
          <ellipse cx="426.832" cy="53.01" fill="#44464E" rx="2.5" ry="2.504"/>
          <ellipse cx="444.832" cy="53.01" fill="#44464E" rx="2.5" ry="2.504"/>
          <ellipse cx="453.832" cy="53.01" fill="#44464E" rx="2.5" ry="2.504"/>
          <ellipse cx="435.832" cy="53.01" fill="#44464E" rx="2.5" ry="2.504"/>
          <path fill="#383A43" d="M1271.911 77.291L1315.052 46.22 1315.052 140.373 1271.911 140.661z"/>
          <path fill="#30323A" d="M909.320829,29.4688152 L954.709516,29.4688152 L954.709516,140.483313 L770.752005,140.661118 C770.752005,83.4554718 770.752005,63.0755135 770.752005,79.521243 C770.752005,95.9669725 777.849932,105.174831 792.045787,107.144819 L909.320829,108.281162 L909.320829,29.4688152 Z" transform="matrix(-1 0 0 1 1725.462 0)"/>
          <path fill="#44464E" d="M468.134 97.321L468.134 124.337 494.332 125.339 494.332 140.373 412.134 141.051 412.134 97.321zM770.752 72.427L816.141 72.427 816.141 77.436 770.752 77.436z"/>
          <ellipse cx="808.272" cy="41.273" fill="#44464E" rx="2.5" ry="2.504"/>
          <rect width="5" height="13.523" x="805.772" y="48.494" fill="#44464E" rx="2.5"/>
          <path fill="#383A43" d="M1047.59251,43.785611 C1047.59251,43.2284722 1048.04416,42.776822 1048.6013,42.776822 L1076.2261,42.776822 L1076.2261,42.776822 L1076.2261,44.7944001 L1048.6013,44.7944001 C1048.04416,44.7944001 1047.59251,44.3427499 1047.59251,43.785611 Z" transform="rotate(90 1061.91 43.786)"/>
          <path fill="#44464E" d="M210.911 97.321L262.052 55.988 262.052 143.378 210.911 143.378z"/>
          <path fill="#383A43" d="M262.052 143.138L424.332 143.138 424.332 55.988 338.823 55.988 338.823 97.101 262.071 97.101z" transform="matrix(-1 0 0 1 686.384 0)"/>
          <path fill="#E4EEFF" d="M1494,103.214347 L1447.3854,103.214347 L1447.2042,143.677696 L1559.73548,143.348869 L1559.73548,47.0231098 C1553.67919,47.1165582 1548.92546,47.1628215 1545.4743,47.1618996 C1511.6318,47.1494352 1494.4737,65.8335842 1494,103.214347 Z"/>
          <path fill="#30323A" d="M954.709516,140.328748 L1014.1652,140.661118 L1014.1652,109.147044 L1014.1652,42.1220491 L966.117254,42.1220491 L966.117254,22.7853814 C958.512095,17.8902169 954.709516,15.4426347 954.709516,15.4426347 C954.709516,15.4426347 954.709516,24.3357728 954.709516,42.1220491 L954.709516,140.328748 Z"/>
          <rect width="5" height="16.529" x="1124.332" y="84.331" fill="#44464E" rx="2.5"/>
          <rect width="5" height="11.52" x="999.332" y="50.505" fill="#44464E" rx="2.5"/>
          <ellipse cx="1001.832" cy="69.931" fill="#44464E" rx="2.5" ry="2.504"/>
          <ellipse cx="1061.909" cy="47.535" fill="#383A43" rx="3.494" ry="3.5"/>
          <ellipse cx="1138.563" cy="87.337" fill="#44464E" rx="2.5" ry="2.504"/>
          <ellipse cx="1150.293" cy="87.337" fill="#44464E" rx="2.5" ry="2.504"/>
          <ellipse cx="990.832" cy="53.01" fill="#44464E" rx="2.5" ry="2.504"/>
          <path fill="#30323A" d="M568.292 65.048L568.292 143.331 412.134 143.331 412.134 97.321 507.395 97.321 507.395 65.048z"/>
          <rect width="5" height="13.523" x="553.832" y="73.044" fill="#44464E" rx="2.5"/>
          <ellipse cx="556.332" cy="94.817" fill="#44464E" rx="2.5" ry="2.504"/>
          <ellipse cx="1138.563" cy="98.356" fill="#44464E" rx="2.5" ry="2.504"/>
          <ellipse cx="1150.293" cy="98.356" fill="#44464E" rx="2.5" ry="2.504"/>
          <path fill="#30323A" d="M1337.367 46.22L1337.367 103.214 1315.052 103.022 1315.052 143.678 1494.936 143.349 1494.936 46.22 1409.427 46.22 1409.427 64.619 1357.454 64.619 1357.454 46.22z" transform="matrix(-1 0 0 1 2809.988 0)"/>
        </g>
      </g>
    </g>
    <g transform="translate(354.427)">
      <g transform="translate(58.897 210.09)">
        <g transform="translate(13.187 8.465)">
          <path fill="#474747" d="M4.7285051,7.58798061 C3.00499399,6.9374729 2.14323843,5.99608118 2.14323843,4.76380546 C2.14323843,2.91539187 2.85972558,2.5046333 3.30233855,2.10211364 C4.34232646,1.15633119 5.7748102,1.15633119 7.59978976,2.10211364 L4.7285051,7.58798061 Z" transform="scale(-1 1) rotate(-1 0 562.71)"/>
          <ellipse cx="3.812" cy="4.782" fill="#5858AF" rx="3.076" ry="3.081" transform="rotate(-1 3.812 4.782)"/>
          <ellipse cx="3.812" cy="4.782" fill="#FFF" rx="1.025" ry="1.027" transform="rotate(-1 3.812 4.782)"/>
          <path fill="#474747" d="M63.9266383,7.61689623 C61.4236379,6.62998761 59.6740505,5.79854326 58.6778763,5.12256317 C57.1836148,4.10859303 57.4826206,1.65628988 59.2959339,0.346320606 C60.4558324,-0.491610427 63.0568769,0.191004251 67.0990673,2.39416464 L63.9266383,7.61689623 Z"/>
          <ellipse cx="65.368" cy="4.858" fill="#5858AF" rx="3.076" ry="3.081"/>
          <ellipse cx="65.333" cy="4.894" fill="#FFF" rx="1.025" ry="1.027" transform="rotate(-2 65.333 4.894)"/>
        </g>
        <path fill="#B7DDCA" d="M2.40767574,2.33919626 C2.9627392,2.14175702 4.38211938,3.05138681 5.74214457,3.34230986 C7.10216976,3.63323291 12.0295384,5.10017684 13.5633228,5.10017684 C15.0971072,5.10017684 83.0542232,6.32859945 86.3079626,5.10017684 C89.561702,3.87175423 93.5620883,1.47096774 94.7940803,1.47096774 C95.6154084,1.47096774 95.7803448,1.76037725 95.2888896,2.33919626 L94.7940803,4.47387773 L85.7761226,9.74696515 L12.1304122,9.1340586 C5.54421911,7.4386342 2.11138576,6.04948665 1.83191213,4.96661593 C1.41270167,3.34230986 1.85261228,2.53663551 2.40767574,2.33919626 Z" transform="rotate(-1 48.615 5.609)"/>
        <path fill="#3D3D3D" d="M1.94124238,3.05675405 C1.94124238,3.05675405 0.0572447081,3.81987375 0.999243545,5.06618532 C1.94124238,6.31249688 5.79685148,8.20532663 11.2977436,9.04633631 C16.7986357,9.887346 79.5352171,10.5409933 84.3928823,10.5409933 C89.2505474,10.5409933 96.5664889,4.40320133 96.5664889,3.53908161 C96.5664889,2.67496188 95.5751201,0.926599425 94.2489586,2.52138275 C92.922797,4.11616608 86.560636,8.53937321 83.5446723,8.53937321 C80.5287087,8.53937321 15.9233073,7.92916012 11.2977436,6.96691143 C6.67217989,6.00466275 1.94124238,3.05675405 1.94124238,3.05675405 Z" transform="rotate(-1 48.651 6.208)"/>
      </g>
      <g transform="rotate(14 52.168 456.798)">
        <path fill="#705239" d="M15.9656968,5.46555563 C10.9190581,10.8538551 8.26648742,15.3514062 8.0079848,18.9582087 C7.8196908,21.5854134 8.68617709,25.8632257 12.3930751,27.5523363 C12.7377775,27.7094057 10.2002834,39.2515542 10.5228085,39.3846629 C11.8972142,39.9518914 20.4064614,40.9362395 20.7076664,36.5724611 C20.9179297,33.5262236 21.401692,29.5835052 23.5636968,27.3410181 C26.3857179,24.4139452 27.3568775,18.3586651 26.4771756,9.17517782 L15.9656968,5.46555563 Z" transform="scale(-1 1) rotate(-19 0 126.584)"/>
        <path fill="#AC8538" d="M1.61580053,5.62896613 C3.48521451,12.7446065 5.42718268,16.7304253 7.44170502,17.5864225 C8.00483883,17.8257055 9.04802968,15.3655648 10.3988545,16.8983809 C11.7496793,18.4311971 10.1572581,20.1470644 9.67771044,21.0156319 C9.19816276,21.8841993 12.2618181,27.6310469 12.5617553,28.2659847 C12.5617553,28.2659847 14.1825247,26.2366061 18.2754782,23.7253583 C25.8481038,19.0791438 22.674794,13.3505205 22.7438644,9.70212809 C22.9258507,0.089358986 15.8831628,-1.26836167 1.61580053,5.62896613 Z" transform="scale(-1 1) rotate(-7 0 218.845)"/>
      </g>
      <path fill="#000" d="M129.597034,14.7123234 C137.121958,12.7693803 140.786588,11.1393386 140.590924,9.82219832 C140.395261,8.50505804 136.266852,9.22636725 128.205698,11.9861259 L129.597034,14.7123234 Z" transform="rotate(-11 134.402 11.948)"/>
      <path fill="#000" d="M108.504144,21.3305828 C107.462459,18.4383681 103.882148,5.72448848 118.107384,4.00387195 C127.590874,2.85679426 132.524072,7.64652983 132.906977,18.3730787 C128.190226,19.5144059 124.355002,20.3061167 121.401306,20.748211 C116.970762,21.4113525 112.145692,21.9531679 108.504144,21.3305828 Z" transform="rotate(-20 120.12 12.721)"/>
      <circle cx="113.024" cy="23.788" r="1" fill="#FFBC8A" transform="rotate(-1 113.024 23.788)"/>
      <circle cx="114.529" cy="23.423" r="1" fill="#FFBC8A" transform="rotate(-1 114.53 23.423)"/>
      <circle cx="115.928" cy="23.012" r="1" fill="#FFBC8A" transform="rotate(10 115.928 23.012)"/>
      <path fill="#9486DB" d="M104.611401,40.1111806 C110.29861,35.9162545 113.173397,33.8008928 113.235763,33.7650956 C119.073647,37.4434619 122.942417,44.8680101 124.723801,52.8102348 C125.91139,58.1050513 125.91139,74.4339678 124.723801,101.796984 C104.463537,96.5778462 94.192707,93.9682771 93.9113119,93.9682771 C93.6620195,93.9682771 94.6847975,86.8442172 94.6847975,62.65396 C94.6847975,55.9960386 97.9936654,48.4817788 104.611401,40.1111806 Z" transform="scale(-1 1) rotate(-14 0 961.569)"/>
      <g transform="translate(0 66.051)">
        <path fill="#705239" d="M112.234195,122.793632 C112.811183,132.67772 120.628071,146.63436 117.907935,146.961841 C114.077296,147.423017 110.729607,148.318384 107.864868,149.64794 L129.674727,147.119559 C125.943006,135.945911 123.029768,127.420654 120.935011,121.543787 C114.306519,102.947473 112.222743,122.597449 112.234195,122.793632 Z" transform="matrix(-1 0 0 1 237.54 0)"/>
        <path fill="#5D5291" d="M102.921028,40.2913389 L118.866517,30.8439562 C140.544944,59.8666003 150.456146,76.9359927 148.600124,82.0521335 C145.445527,90.7478043 137.416997,107.004077 124.514535,130.820951 L111.288181,130.820951 L127.507698,83.9688013 L88.1386719,47.4938682 L102.921028,40.2913389 Z"/>
        <path fill="#705239" d="M13.3151176,42.000369 C17.6945066,56.8677652 34.8934374,74.0868207 34.7427668,78.5857959 C34.6423197,81.5851127 33.6487977,83.83816 31.7622007,85.3449378 L47.5001031,80.1596993 C35.8605454,62.9092015 27.527184,50.1455528 22.5000189,41.868753 C18.9862676,38.9898894 8.93572859,27.1329729 13.3151176,42.000369 Z" transform="scale(1 -1) rotate(83 97.688 0)"/>
        <path fill="#4475FE" d="M11.6670592,40.7610355 C9.86079254,42.2216546 8.95765922,44.0442796 8.95765922,46.2289105 C8.95765922,49.5058567 12.1503683,50.3190669 12.1503683,51.6484209 C12.1503683,52.9777749 7.15281869,65.8446448 3.86944755,65.3691269 C3.07777942,62.7009414 4.17514459,41.1498892 4.17514459,38.8387656 C4.17514459,37.9110537 5.16577829,38.1228734 7.19848845,38.5344926 C8.55362855,38.8089054 10.0431521,39.5510864 11.6670592,40.7610355 Z" transform="rotate(16 7.866 51.783)"/>
        <path fill="#6F57B9" d="M77.5198907,24.3991171 L106.926001,12.5182775 C95.2761638,63.6320294 84.9780008,90.0814476 76.0315119,91.8665322 C67.0850229,93.6516169 50.1088801,89.5510252 25.1030836,79.5647574 L24.5890725,65.608482 L62.8787464,75.7087761 C68.271585,50.5069689 71.5263812,35.9775683 72.643135,32.1205741 C73.7598887,28.2635799 75.3854739,25.6897609 77.5198907,24.3991171 Z" transform="rotate(22 65.758 52.395)"/>
        <path fill="#4475FE" d="M109.148736,143.085029 C106.722347,145.211358 105.509152,147.48319 105.509152,149.900523 C107.062538,149.900523 133.450959,152.011316 133.747554,149.900523 C133.945284,148.493328 129.708882,146.436198 121.038347,143.729135 L119.720285,143.729135 C119.33493,143.729198 119.012112,144.020871 118.97315,144.404251 C118.866628,145.452385 118.449838,145.976451 117.722778,145.976451 C116.950163,145.976451 115.505065,145.976451 113.387482,145.976451 C112.854053,145.976456 112.337924,145.7872 111.930939,145.442366 L109.148736,143.085029 L109.148736,143.085029 Z"/>
      </g>
      <path fill="#000" d="M111.133539,23.4107028 C112.275902,23.2032946 113.232163,22.8793636 114.288511,22.6093715 C115.344859,22.3393794 116.952768,21.3657011 117.202756,22.6083502 C117.452744,23.8509992 114.45172,24.3382681 112.081652,24.771428 C112.081652,24.771428 111.756433,24.3392126 111.598124,24.1120095 C111.439816,23.8848064 111.295376,23.6949345 111.133539,23.4107028 Z" transform="rotate(-1 114.175 23.381)"/>
      <path fill="#3D3D3D" d="M112.639741,36.9269225 C117.520213,45.2487538 120.076609,52.2323664 120.308931,57.8777605 C113.125323,67.9172434 104.273388,76.6807047 93.7531242,84.1681441 L94.5792129,82.2046938 C103.227349,76.0586465 111.54536,67.6348283 119.533247,56.9332391 C119.533247,53.4496966 117.053047,46.8946828 112.092646,37.2681976 L112.639741,36.9269225 Z"/>
      <path fill="#705239" d="M159.906675,72.3754974 C161.261683,71.907899 161.129696,69.1374831 163.752771,66.3401623 C163.761823,66.3305092 165.186351,63.3874099 165.447065,62.4252772 C165.70778,61.4631445 166.331909,62.2848302 166.331909,63.3875833 C166.331909,64.5507973 165.263721,67.3040701 167.861759,66.3401623 C169.327677,65.7962863 170.863399,64.5741041 172.468923,62.6736155 L172.468908,62.6736031 C172.626967,62.4865066 172.897284,62.4414394 173.107491,62.5671387 C174.18054,63.2087975 174.744393,63.8431563 174.799051,64.4702148 C174.994574,66.7133531 174.4107,71.1848801 172.289328,72.3754974 C169.459979,73.963466 163.752771,77 163.752771,77 C163.752771,77 151.370781,75.3211415 159.906675,72.3754974 Z"/>
      <path fill="#9486DB" d="M138.084335,47.2326367 C133.876281,52.1614606 130.634162,56.341245 128.35798,59.7719897 C122.911433,66.3329186 118.516514,71.4105923 115.173224,75.0050108 C114.210558,76.0399857 99.0370492,73.7154919 95.6146028,72.3989258 C95.0765128,73.2148849 91.9948403,76.0532008 91.0224291,77 C95.9353757,80.8716414 110.880852,87.9518763 115.141254,87.8929418 C122.872537,87.7851954 139.076376,78.685884 163.752771,60.5950076 C147.885485,51.6867603 139.32934,47.2326367 138.084335,47.2326367 Z" transform="matrix(-1 0 0 1 254.775 0)"/>
      <g transform="translate(62.56 24.595)">
        <g transform="translate(10.462)">
          <g transform="translate(11.291 2.15)">
            <path fill="#FFE6D5" d="M10.382 1.486L13.459 0 13.459 6.161 10.382 4.791z" transform="rotate(-71 11.92 3.08)"/>
            <path fill="#FFF5ED" d="M0 6.208H17.277V17.742H0z" transform="rotate(-71 8.638 11.975)"/>
          </g>
          <g transform="translate(0 7.707)">
            <use fill="#FFDFC8" transform="rotate(49 10.38 10.174)" xlink:href="#message_tab-d-c"/>
            <path fill="#FFC296" d="M4.382 5.121L12.496 11.464 20.571 5.227z" transform="rotate(48 12.477 8.293)"/>
          </g>
          <g transform="translate(17.4)">
            <path fill="#FFDFC8" d="M4.64144908,4.41290323 L18.839295,4.41290323 C19.7779104,4.41290323 20.5388086,5.17380138 20.5388086,6.11241683 L20.5388086,14.5791779 L20.5388086,14.5791779 L20.5388086,19.9670364 L16.5342402,16.6124329 L4.64144908,16.6124329 C3.70283364,16.6124329 2.94193548,15.8515347 2.94193548,14.9129193 L2.94193548,6.11241683 C2.94193548,5.17380138 3.70283364,4.41290323 4.64144908,4.41290323 Z" transform="rotate(133 11.74 12.19)"/>
            <ellipse cx="16.215" cy="10.348" fill="#FFC296" rx="2.369" ry="2.372" transform="rotate(133 16.215 10.348)"/>
            <path fill="#FFC296" d="M15.0250009 15.1021219L11.1819271 19.2233139C10.968549 19.4521339 10.6100767 19.464652 10.3812567 19.2512739L10.2185348 19.0995332C9.98971481 18.8861552 9.97719668 18.5276829 10.1905747 18.2988629L14.0336485 14.1776708C14.2470266 13.9488509 14.6054989 13.9363328 14.8343189 14.1497108L14.9970408 14.3014515C15.2258608 14.5148296 15.2383789 14.8733019 15.0250009 15.1021219zM13.0422961 13.2532198L10.1223792 16.3844474C9.90900114 16.6132673 9.55052882 16.6257855 9.32170886 16.4124074L9.15898688 16.2606667C8.93016692 16.0472886 8.91764879 15.6888163 9.13102686 15.4599964L12.0509438 12.3287688C12.2643219 12.0999488 12.6227942 12.0874307 12.8516141 12.3008088L13.0143361 12.4525495C13.2431561 12.6659275 13.2556742 13.0243999 13.0422961 13.2532198z"/>
          </g>
        </g>
        <path fill="#4475FE" d="M50.0790839,12.3319149 C43.3378721,40.0362652 37.8924058,55.4552863 33.7426849,58.5889782 C27.5181037,63.2895161 17.7902965,69.9826315 5.6460701,59.5731366 C-6.49815628,49.1636416 3.02603439,26.4173426 14.6756287,19.1965185 C15.002618,18.9938392 22.7188985,21.621444 35.4890448,19.1965185 C38.4756025,18.6294005 43.3389489,16.3411993 50.0790839,12.3319149 Z"/>
      </g>
      <path stroke="#6F57B9" d="M106 71L122.202 80.778M139.602 75.005L138.559 78.338"/>
    </g>
    <g transform="translate(1079.332 152.353)">
      <path fill="#D4D4FF" d="M104.335572,38.9660467 C106.157832,39.8183621 107.068962,40.9455576 107.068962,42.3476331 C108.952737,40.7514393 116.727076,33.8738175 130.391978,21.7147678 C130.544961,21.4028269 130.621452,21.1635517 130.621452,20.9969425 C130.621452,20.8303333 130.544961,20.6454469 130.391978,20.4422833 L104.335572,38.9660467 Z"/>
      <g transform="rotate(-144 64.372 5.125)">
        <path fill="#6E6EFF" d="M4.51306446,2.57095273 C4.52206782,2.11632726 6.08944651,0.7831263 7.58341228,0.704910096 C9.45484805,0.606931544 11.7520876,2.01845738 11.7618171,2.70597597 C11.7714314,3.38832487 9.82728373,14.0059995 9.75269036,23.7237882 C9.69212623,31.613892 9.94868086,31.2291831 9.86051079,31.5369862 C9.66374669,32.2238929 7.7488366,31.6831219 7.54180071,31.0059381 C7.44164077,30.6783297 8.02644592,27.9489344 6.94065717,20.6951038 C4.34676815,3.36610557 4.50259474,3.09962236 4.51306446,2.57095273 Z" transform="rotate(17 8.135 16.278)"/>
        <ellipse cx="11.889" cy="4.004" fill="#0000B7" rx="2.563" ry="1.711" transform="rotate(16 11.89 4.004)"/>
        <path fill="#BBF" d="M15.5712678,4.35939146 C15.2369297,4.66695718 14.9827632,8.00774461 10.9125399,6.67946296 C6.84231663,5.35118131 8.76264267,2.22659963 8.67876244,2.11094839 C7.54226914,4.4309574 8.00367789,8.79653632 5.12697803,20.1351949 C4.22525578,23.689379 3.16613575,27.4950706 1.94961797,31.5522699 C2.46881695,31.9625207 2.95883444,32.2446549 3.41967043,32.3986725 C3.88050643,32.5526901 4.56599099,32.6634245 5.47612412,32.7308758 C6.52351502,28.8418181 7.56503841,25.3086581 8.60069428,22.1313959 C12.7538157,9.39014066 15.8815945,4.35939146 15.5712678,4.35939146 Z"/>
      </g>
      <g transform="rotate(7 1.557 72.377)">
        <path fill="#805208" d="M24.0641147,44.6498853 C16.1100209,43.8268021 10.3888521,44.0347423 6.90060832,45.273706 C4.66748824,46.0668716 2.9536255,48.5450948 1.65975492,48.6091503 C-0.0780090508,48.6951816 0.734951442,45.6233594 2.16232527,43.8592936 C4.71341145,40.7064517 23.9050884,37.7521633 25.7613738,38.2083658 C26.9988973,38.5125008 26.4331443,40.659674 24.0641147,44.6498853 Z" transform="rotate(-3 13.537 43.386)"/>
        <g transform="matrix(-1 0 0 1 121.713 0)">
          <path fill="#805208" d="M51.1076926,37.283326 C49.1070036,41.8620779 47.1494716,45.3003466 45.2350966,47.598132 C42.363534,51.0448101 40.096472,53.4321566 39.2064107,55.7412535 C38.3163495,58.0503503 38.3143323,60.863035 39.2009767,63.3183048 C39.6166659,64.4694193 41.1034957,64.9045531 41.9516509,65.4343911 C42.9125686,66.0346712 43.6542055,68.8652794 42.6226791,68.8660203 C41.5911527,68.8667604 39.8083365,67.9525062 38.3666341,67.4845409 C37.7224582,67.2754464 37.1179994,66.3728662 34.6148111,59.0682604 C32.9460188,54.1985233 33.6029413,46.122251 36.5855785,34.8394435 L45.2453792,33.2602393 L51.1076926,37.283326 Z" transform="scale(-1 1) rotate(-28 0 221.17)"/>
          <path fill="#805208" d="M92.4043902,27.4617907 C97.0700356,24.7943787 95.5503925,19.1408611 95.5503925,19.1408611 C96.9120468,19.1398613 100.342126,31.9625738 88.7095402,32.4285373 C82.4726717,32.6783659 83.276259,30.8792093 85.1396381,28.9849889 C87.1831872,26.9076166 90.4426498,28.583344 92.4043902,27.4617907 Z" transform="rotate(-29 90.443 25.796)"/>
          <path fill="#FFC608" d="M7.80783736,4.9488159 L15.5208046,6.94783189 C16.0768789,7.091953 16.6681794,6.98519524 17.1387466,6.65571671 L17.1387466,6.65571671 L17.9482304,6.08893774 C18.9382959,5.39572029 20.170139,5.14080942 21.3540135,5.3841636 L21.3540135,5.3841636 L30.0978415,7.18152217 C33.1579527,7.81055067 35.3461889,10.5156054 35.3220686,13.6396053 C35.2919207,17.543749 36.9675331,20.929438 40.3489058,23.7966725 C40.4385362,23.8591126 40.525325,23.9273526 40.6106251,23.9997588 L40.7880091,24.1584229 C41.134443,24.4358182 41.4542778,24.7216617 41.7475135,25.0159534 C45.5463567,28.2394473 48.6049795,28.599504 52.9884476,27.6925315 C63.4544157,25.5270439 82.8794506,22.7405959 89.9708332,27.2634217 C94.6538217,30.2501934 96.2442706,33.8923354 97.7514561,37.6983269 L98.0095766,38.3522959 C98.0526479,38.4615277 98.0957917,38.5708703 98.139078,38.6803123 L98.4010684,39.3380647 C98.9748549,40.765381 99.5964626,42.2056147 100.420093,43.6335793 C102.28558,46.8678581 104.191051,47.9742136 106.191962,49.0160407 L106.674042,49.2658967 C108.125948,50.0180867 109.629631,50.8223983 111.205788,52.4489895 C115.146182,56.5154677 120.113275,64.3811155 119.570338,66.1131614 C119.185131,67.3420288 116.996475,66.7663755 116.219418,64.9781113 C115.485268,63.2884776 115.220701,63.2476344 114.666886,62.5695843 C113.263908,60.8518818 111.390287,59.5030758 109.144914,57.2703341 C106.89954,55.0375925 93.9310656,55.5606341 89.9708332,48.0033259 C83.8787109,36.377734 64.3316411,54.2376193 43.0398243,45.9733559 C36.4688655,50.7691891 30.7551368,52.6084989 25.0650104,53.7533623 C19.3748839,54.8982256 12.0573153,52.5004475 10.5078706,52.9967035 C8.7236957,52.9967035 1.8758248,56.8768325 0.476736078,56.1357445 C-0.616408827,54.3390637 1.90904255,53.1349483 3.45817867,52.3782895 C5.00731479,51.6216307 8.75293134,48.0033259 15.1258866,48.9320176 C19.9665844,49.6374229 26.7134312,47.4177034 26.7134312,41.5960015 C26.7134312,39.0085784 26.7715496,37.5793274 26.8361256,36.1544253 L26.8556404,35.7259314 C26.930794,34.0750254 27.0076555,32.2772778 27.0076555,28.5778681 L27.0233846,28.5608159 L27.0219963,28.4608696 C26.9627183,18.6997052 25.2747726,19.0523363 16.3005888,16.3871261 L15.9845715,16.2929089 C15.7086473,16.2103172 13.5215699,14.2146379 13.2575593,14.1349659 C12.395219,13.8747326 11.1991399,13.5744426 9.66932187,13.2340961 C9.61076623,13.2210689 9.55252757,13.2066557 9.49465495,13.1908686 C7.47184575,12.6390665 6.27935889,10.5519317 6.83116524,8.52912363 L6.83116524,8.52912363 L7.80783736,4.9488159 Z"/>
          <path fill="#734B0A" d="M10.8013436,6.58840574 L8.40486096,4.76038765 C8.30243209,4.68228007 8.15607543,4.70197437 8.07795245,4.80439149 C8.07604797,4.80688821 8.07419411,4.80942314 8.072392,4.81199472 C7.35938626,5.82944203 6.80024974,6.65307079 6.39498243,7.28288099 C6.39498243,7.28288099 7.72680416,7.92777596 8.99009708,7.61021643 C9.83229236,7.39851007 10.4360412,7.05790651 10.8013436,6.58840574 Z" transform="rotate(-22 8.598 6.156)"/>
          <path fill="#734B0A" d="M37.8467643,3.62382063 L42.9859703,20.8388068 C43.1702226,21.4560034 42.8192519,22.1057061 42.2020553,22.2899584 C41.9010233,22.3798258 41.5764665,22.3444453 41.3018682,22.1918277 L33.9649232,18.1140628 C31.1499207,16.5495263 30.1362177,12.9992085 31.7007542,10.1842059 C31.954983,9.72678309 32.2696297,9.30566408 32.6362183,8.93219288 L37.8467643,3.62382063 L37.8467643,3.62382063 Z" transform="scale(-1 1) rotate(35 0 -99.114)"/>
          <ellipse cx="20.358" cy="9.371" fill="#734B0A" rx="1.139" ry="1.141" transform="rotate(3 20.358 9.37)"/>
        </g>
      </g>
    </g>
  </g>
</svg>
